<?xml version="1.0" standalone="no"?>
<!DOCTYPE svg PUBLIC "-//W3C//DTD SVG 1.1//EN" "http://www.w3.org/Graphics/SVG/1.1/DTD/svg11.dtd" >
<svg>
<metadata>
Created by FontForge 20090914 at Fri Feb 24 06:51:52 2012
 By root
(c) 2001 by Jeffrey N. Levine. Freeware, not for sale.
</metadata>
<defs>
<font id="DryGoodsJL" horiz-adv-x="959" >
  <font-face 
    font-family="Dry Goods JL"
    font-weight="400"
    font-stretch="normal"
    units-per-em="1000"
    panose-1="0 0 4 0 0 0 0 0 0 0"
    ascent="800"
    descent="-200"
    x-height="800"
    cap-height="800"
    bbox="-15 -124 1000 888"
    underline-thickness="20"
    underline-position="-123"
    unicode-range="U+0020-U+201D"
  />
<missing-glyph horiz-adv-x="500" 
d="M63 0v888h375v-888h-375zM125 63h250v763h-250v-763z" />
    <glyph glyph-name=".notdef" horiz-adv-x="500" 
d="M63 0v888h375v-888h-375zM125 63h250v763h-250v-763z" />
    <glyph glyph-name=".null" horiz-adv-x="0" 
 />
    <glyph glyph-name="nonmarkingreturn" horiz-adv-x="481" 
 />
    <glyph glyph-name="space" unicode=" " horiz-adv-x="481" 
 />
    <glyph glyph-name="exclam" unicode="!" horiz-adv-x="424" 
d="M360 800h-316v-160q116 -144 124 -356h56q8 212 136 352v164zM300 188h-204v-188h204v188z" />
    <glyph glyph-name="quotedbl" unicode="&#x22;" horiz-adv-x="559" 
d="M8 816v-188h102l-58 -108h96l64 108v188h-204zM268 628h88l-44 -108h96l56 108v188h-196v-188z" />
    <glyph glyph-name="numbersign" unicode="#" horiz-adv-x="794" 
d="M192 860v-172h-128v-140h128v-140h-132v-132h136v-192h136v192h124v-192h136v192h132v128h-136v140h136v136h-136v176h-132v-176h-132v180h-132zM456 412h-132v132h132v-132z" />
    <glyph glyph-name="dollar" unicode="$" horiz-adv-x="929" 
d="M56 367v-262l37 4l42 68q11 -70 77 -70h166l-2 -107h168v108l164 -1q81 0 117 30q40 34 40 113v161q0 86 -150 86h-476q-31 0 -31 25v24q0 25 29 25h445q26 0 26 -17v-17h157v241h-37l-38 -72q-24 45 -89 68l-157 2v112h-164v-112l-161 -2q-83 -1 -121 -34
q-42 -35 -42 -116v-130q13 -93 156 -93h469q31 0 31 -26v-26q0 -22 -28 -22h-434q-29 0 -34 20v20h-160z" />
    <glyph glyph-name="percent" unicode="%" horiz-adv-x="930" 
d="M-15 0h154l718 877h-158q-135 -190 -356 -444q-60 -69 -179 -217q-116 -144 -179 -216zM76 886q-75 0 -75 -76v-182q-8 -79 75 -79h220q79 0 79 72v196q0 69 -69 69h-230zM304 751v-60q0 -31 -32 -31h-165q-36 0 -36 29v64q0 30 32 30h166q35 4 35 -32zM571 339
q-76 0 -76 -76v-182q-7 -80 76 -80h220q79 0 79 73v196q0 69 -69 69h-230zM799 204v-61q0 -30 -32 -30h-165q-36 0 -36 28v64q0 31 32 31h166q35 0 35 -32z" />
    <glyph glyph-name="ampersand" unicode="&#x26;" horiz-adv-x="956" 
d="M888 464h-156v50q0 50 -48 50h-396q-56 0 -56 -50t56 -50h296v-120h-296q-56 0 -56 -56t56 -56h444v72h156v-428h-156v124h-560q-90 0 -131 41t-41 131v132q-8 88 124 108q-100 4 -124 92v132q0 164 164 164h548q72 -24 100 -76l38 76h38v-336z" />
    <glyph glyph-name="quotesingle" unicode="'" horiz-adv-x="306" 
d="M8 816v-188h102l-58 -108h96l64 108v188h-204z" />
    <glyph glyph-name="parenleft" unicode="(" horiz-adv-x="284" 
d="M212 872h-120q-88 -16 -100 -100v-792q20 -80 88 -80h132v176h-34q-34 0 -34 38v550q0 36 34 36h34v172z" />
    <glyph glyph-name="parenright" unicode=")" horiz-adv-x="292" 
d="M-8 872h120q88 -16 100 -100v-792q-20 -80 -88 -80h-132v176h34q34 0 34 38v550q0 36 -34 36h-34v172z" />
    <glyph glyph-name="asterisk" unicode="*" horiz-adv-x="422" 
d="M141 864v-81l-77 39l-48 -51l109 -51l-96 -56l52 -51l58 59v-96h76v96l69 -50l52 53l-107 48l111 60l-48 48l-79 -48v81h-72z" />
    <glyph glyph-name="plus" unicode="+" horiz-adv-x="724" 
d="M284 832v-256h-252v-140h252v-268h140v272h252v136h-252v256h-140z" />
    <glyph glyph-name="comma" unicode="," horiz-adv-x="381" 
d="M96 188v-188h102l-58 -108h96l64 108v188h-204z" />
    <glyph glyph-name="hyphen" unicode="-" horiz-adv-x="409" 
d="M436 340h-436v148h436v-148z" />
    <glyph glyph-name="hyphen" unicode="&#x2010;" horiz-adv-x="409" 
d="M436 340h-436v148h436v-148z" />
    <glyph glyph-name="period" unicode="." horiz-adv-x="396" 
d="M96 188v-188h204v188h-204z" />
    <glyph glyph-name="slash" unicode="/" horiz-adv-x="517" 
d="M336 800l-332 -800h136l336 800h-140z" />
    <glyph glyph-name="zero" unicode="0" horiz-adv-x="966" 
d="M180 800q-93 0 -136.5 -43.5t-43.5 -136.5v-432q-2 -19 -2 -35q0 -84 50 -121q44 -32 132 -32h520q188 0 188 172v464q0 164 -164 164h-544zM720 480v-144q0 -72 -76 -72h-392q-84 0 -84 68v151q0 73 76 73h392q84 8 84 -76z" />
    <glyph glyph-name="one" unicode="1" horiz-adv-x="458" 
d="M268 800h-268v-244h120v-300h-120v-256h384v260h-116v540z" />
    <glyph glyph-name="two" unicode="2" horiz-adv-x="961" 
d="M0 464h168v50q0 50 56 50h412q56 0 56 -48v-40q0 -44 -56 -44l-248 -2l-188 2q-137 1 -200 -124v-308h884v296h-164l-8 -60h-512v46q0 46 52 46h452q184 34 184 180v128q0 164 -164 164h-556q-80 0 -124 -44t-44 -124v-168z" />
    <glyph glyph-name="three" unicode="3" horiz-adv-x="964" 
d="M0 464h156v50q0 50 60 50h380q60 0 60 -50t-60 -50h-292v-120h292q60 0 60 -56t-60 -56h-380q-60 0 -60 36v36h-156v-148q0 -157 130 -157h12q9 1 14 1h560q172 0 172 132v116q0 133 -124 152q104 4 124 96v144q0 140 -184 160h-552q-153 0 -153 -128v-11q1 -8 1 -13
v-184z" />
    <glyph glyph-name="four" unicode="4" horiz-adv-x="908" 
d="M364 0v244h160v88h-492v220l488 244h272v-236h-116v-100h228v-128h-228v-88h160v-244h-472zM520 576l-352 -116h352v116z" />
    <glyph glyph-name="five" unicode="5" horiz-adv-x="962" 
d="M0 336h168v-50q0 -50 56 -50h412q56 0 56 48v40q0 44 -56 44h-636v432h884v-296h-164l-8 60h-512v-92h504q184 -34 184 -180v-128q0 -164 -164 -164h-556q-80 0 -124 44t-44 124v168z" />
    <glyph glyph-name="six" unicode="6" horiz-adv-x="960" 
d="M888 320q0 136 -160 136h-514q-46 0 -46 36v40q0 36 44 36h470q38 0 38 -32v-32h168v140q0 156 -156 156h-560q-90 0 -131 -41t-41 -131v-464q0 -165 137 -165h13q9 1 14 1h572q81 0 116.5 35.5t35.5 116.5v168zM712 300v-32q0 -32 -40 -32h-462q-42 0 -42 34v34
q0 32 44 32h458q42 0 42 -36z" />
    <glyph glyph-name="seven" unicode="7" horiz-adv-x="935" 
d="M576 256h-104l416 276v268h-888v-360h164v88h488l-420 -268h-92v-260h436v256z" />
    <glyph glyph-name="eight" unicode="8" horiz-adv-x="965" 
d="M0 480q0 -80 88 -88q-68 -16 -88 -88v-148q0 -156 156 -156h560q93 0 132.5 39.5t39.5 132.5v132q-16 72 -92 92q92 19 92 92v148q0 164 -164 164h-560q-166 0 -166 -132q0 -13 2 -28v-160zM216 464q-58 0 -60 50q-2 44 62 50h458q47 0 46 -50t-46 -50h-460zM156 288
q4 56 52 56h472q40 0 46 -54q-6 -58 -46 -58h-472q-48 0 -52 56z" />
    <glyph glyph-name="nine" unicode="9" horiz-adv-x="978" 
d="M12 480q0 -136 160 -136h514q46 0 46 -36v-40q0 -36 -44 -36h-470q-38 0 -38 32v32h-168v-140q0 -156 156 -156h560q90 0 131 41t41 131v464q0 165 -137 165h-13q-9 -1 -14 -1h-572q-81 0 -116.5 -35.5t-35.5 -116.5v-168zM188 508v32q0 32 40 32h462q42 0 42 -34v-34
q0 -32 -44 -32h-458q-42 0 -42 36z" />
    <glyph glyph-name="colon" unicode=":" horiz-adv-x="367" 
d="M300 624h-204v-184h204v184zM300 188h-204v-188h204v188z" />
    <glyph glyph-name="semicolon" unicode=";" horiz-adv-x="367" 
d="M300 624h-204v-184h204v184zM300 188h-204v-188h102l-58 -108h96l64 108v188z" />
    <glyph glyph-name="less" unicode="&#x3c;" horiz-adv-x="577" 
d="M384 808l-392 -392l416 -416h132l-420 420l388 388h-124z" />
    <glyph glyph-name="equal" unicode="=" horiz-adv-x="511" 
d="M436 340h-436v148h436v-148zM436 588v140h-436v-140h436z" />
    <glyph glyph-name="greater" unicode="&#x3e;" horiz-adv-x="504" 
d="M148 808l392 -392l-416 -416h-132l420 420l-388 388h124z" />
    <glyph glyph-name="question" unicode="?" horiz-adv-x="925" 
d="M0 464h168v54q0 46 48 46h448q28 0 28 -28v-44q6 -32 -28 -32h-356q-44 0 -44 -44v-196h162v70q0 34 30 34h292q140 0 140 140v172q0 164 -164 164h-556q-80 0 -124 -44t-44 -124v-168zM228 156v-156h236v156h-236z" />
    <glyph glyph-name="at" unicode="@" horiz-adv-x="978" 
d="M135 669v-122h40l-86 -150h-60v-128h208v126h-56l14 30h120l14 -28h-52v-128h196v128h-58l-68 150h44v122h-256zM297 471l-40 78l-44 -78h84zM823 125h-66v148h100v-40h82v162h-444v-158h80v36h102v-150h-64v-128h210v130z" />
    <glyph glyph-name="A" unicode="A" horiz-adv-x="953" 
d="M212 800v-244h104l-196 -300h-120v-256h416v252h-112l40 72h212l36 -68h-96v-256h392v256h-116l-168 300h120v244h-512zM524 416h-148l76 132z" />
    <glyph glyph-name="B" unicode="B" horiz-adv-x="965" 
d="M0 800v-244h108v-300h-108v-256h716q173 0 173 145v13q-1 9 -1 14v132q0 92 -144 108q144 0 144 104v120q0 164 -164 164h-724zM730 336v-46q0 -26 -40 -26h-426v98h424q42 0 42 -26zM688 464h-424v100h422q46 6 46 -26v-46q-6 -34 -44 -28z" />
    <glyph glyph-name="C" unicode="C" horiz-adv-x="939" 
d="M732 488h156v316h-50l-32 -86q-11 82 -82 82h-544q-180 0 -180 -180v-444q0 -176 176 -176h540q176 0 176 176v136h-164v-36q0 -36 -48 -36h-412q-116 0 -116 100v128q0 104 116 104h416q48 0 48 -42v-42z" />
    <glyph glyph-name="D" unicode="D" horiz-adv-x="966" 
d="M0 800v-244h108v-300h-108v-256h716q172 0 172 172v464q0 164 -164 164h-724zM720 480v-143q0 -81 -76 -73h-380v292h380q84 0 76 -76z" />
    <glyph glyph-name="E" unicode="E" horiz-adv-x="964" 
d="M736 332v-72h-460v88h388v136h-392v72h452l8 -68h156v312h-888v-244h108v-300h-108v-256h892v332h-156z" />
    <glyph glyph-name="F" unicode="F" horiz-adv-x="916" 
d="M392 260h-116v88h388v136h-392v72h452l8 -68h156v312h-888v-244h108v-300h-108v-256h392v260z" />
    <glyph glyph-name="G" unicode="G" 
d="M732 488h156v316h-46l-38 -84q0 80 -80 80h-544q-161 0 -180 -180v-444q0 -176 176 -176h540q176 0 176 176v240h-436v-120h276q1 -7 1 -14q0 -42 -47 -42h-458q-76 -8 -76 64v185q0 91 72 83h452q56 0 56 -42v-42z" />
    <glyph glyph-name="H" unicode="H" horiz-adv-x="962" 
d="M892 256h-132v300h128v244h-412v-244h124v-72h-328v72h112v244h-384v-244h108v-300h-108v-256h396v260h-120v88h324v-88h-112v-260h404v256z" />
    <glyph glyph-name="I" unicode="I" horiz-adv-x="468" 
d="M276 556h108v244h-384v-244h108v-300h-108v-256h396v260h-120v296z" />
    <glyph glyph-name="J" unicode="J" horiz-adv-x="955" 
d="M496 540h116v-232q0 -64 -68 -64h-312q-76 0 -68 64v64h-164v-192q0 -95 42.5 -137.5t137.5 -42.5h416q97 0 140.5 43.5t43.5 140.5v360h108v256h-392v-260z" />
    <glyph glyph-name="K" unicode="K" 
d="M892 256h-100l-180 180l204 120h72v244h-412v-244h96l-300 -124v124h112v244h-384v-244h108v-300h-108v-256h396v260h-120v44l192 72l116 -116h-96v-260h404v256z" />
    <glyph glyph-name="L" unicode="L" horiz-adv-x="910" 
d="M392 540h-120v-296h452l8 68h156v-312h-888v244h108v300h-108v256h392v-260z" />
    <glyph glyph-name="M" unicode="M" horiz-adv-x="1071" 
d="M1000 256h-124v300h124v244h-412v-244h128l-232 -152l-212 152h112v244h-384v-244h108v-300h-108v-256h396v260h-120v128l208 -152l232 156v-132h-120v-260h404v256z" />
    <glyph glyph-name="N" unicode="N" horiz-adv-x="962" 
d="M892 256h-132v300h128v244h-412v-244h124v-136l-328 136h112v244h-384v-244h108v-300h-108v-256h396v260h-120v144l324 -144h-112v-260h404v256z" />
    <glyph glyph-name="O" unicode="O" horiz-adv-x="966" 
d="M180 800q-93 0 -136.5 -43.5t-43.5 -136.5v-432q-2 -19 -2 -35q0 -84 50 -121q44 -32 132 -32h520q188 0 188 172v464q0 164 -164 164h-544zM720 480v-144q0 -72 -76 -72h-392q-84 0 -84 68v151q0 73 76 73h392q84 8 84 -76z" />
    <glyph glyph-name="P" unicode="P" horiz-adv-x="922" 
d="M392 260h-116v88h492q120 11 120 120v176q0 74 -41 115t-115 41h-732v-244h108v-300h-108v-256h392v260zM678 484h-406v72h404q49 0 48 -36t-46 -36z" />
    <glyph glyph-name="Q" unicode="Q" horiz-adv-x="970" 
d="M180 800q-180 0 -180 -180v-432q0 -98 45 -143t143 -45h264q56 -30 56 -61t-56 -63h236q45 35 45 74q0 24 -17 50q172 -8 172 172v464q0 164 -164 164h-544zM720 484v-160q2 -10 2 -18q0 -44 -46 -44q-9 0 -20 2h-420q-68 0 -68 60v159q0 73 64 73h424q72 0 64 -72z" />
    <glyph glyph-name="R" unicode="R" horiz-adv-x="964" 
d="M392 260h-116v88h208l112 -88h-112v-260h404v260h-112l-108 88h100q64 0 92 28t28 92v176q12 136 -156 156h-732v-244h108v-300h-108v-256h392v260zM666 484h-394v72h392q59 0 60 -36t-58 -36z" />
    <glyph glyph-name="S" unicode="S" 
d="M0 312v-314l42 4l46 82q13 -84 84 -84h544q92 0 132 40t40 132v192q0 104 -164 104h-522q-34 0 -34 30v28q0 30 32 30h488q28 0 28 -20v-20h172v288h-40l-42 -86q-26 54 -98 82h-528q-94 0 -137 -43t-43 -137v-156q15 -112 172 -112h514q34 0 34 -31v-31q0 -26 -30 -26
h-476q-32 0 -38 24v24h-176z" />
    <glyph glyph-name="T" unicode="T" horiz-adv-x="935" 
d="M656 260h-132v296h200v-80h164v324h-888v-316h160v72h204v-300h-128v-256h420v260z" />
    <glyph glyph-name="U" unicode="U" horiz-adv-x="1022" 
d="M568 540h104v-240q0 -56 -60 -56h-284q-60 0 -60 56v240h108v260h-376v-260h107v-364q0 -176 173 -176h385q91 0 131 40.5t40 131.5v372h120v256h-388v-260z" />
    <glyph glyph-name="V" unicode="V" horiz-adv-x="944" 
d="M212 0v244h104l-196 300h-120v256h416v-252h-112l152 -252l136 248h-96v256h392v-256h-116l-168 -300h120v-244h-512z" />
    <glyph glyph-name="W" unicode="W" horiz-adv-x="1071" 
d="M1000 544h-124l-108 -300h128v-244h-372v244h104l-136 136l-136 -136h100v-244h-380v244h128l-96 300h-108v256h396v-260h-120l44 -128l172 172l160 -160l52 116h-108v260h404v-256z" />
    <glyph glyph-name="X" unicode="X" 
d="M892 256h-112l-152 152l148 148h112v244h-412v-244h96l-132 -132l-132 132h76v244h-384v-244h112l148 -148l-152 -152h-108v-256h396v260h-84l128 128l128 -128h-80v-260h404v256z" />
    <glyph glyph-name="Y" unicode="Y" horiz-adv-x="937" 
d="M264 0v244h112v112l-292 188h-84v256h416v-252h-100l136 -92l144 88h-100v256h392v-256h-88l-252 -188v-112h124v-244h-408z" />
    <glyph glyph-name="Z" unicode="Z" horiz-adv-x="966" 
d="M736 332v-72h-396l548 228v312h-888v-360h164v88h468l-632 -272v-256h892v332h-156z" />
    <glyph glyph-name="backslash" unicode="\" horiz-adv-x="518" 
d="M144 800l332 -800h-136l-336 800h140z" />
    <glyph glyph-name="underscore" unicode="_" horiz-adv-x="920" 
d="M818 -61h-818v64h818v-64z" />
    <glyph glyph-name="a" unicode="a" horiz-adv-x="953" 
d="M212 800v-244h104l-196 -300h-120v-256h416v252h-112l40 72h212l36 -68h-96v-256h392v256h-116l-168 300h120v244h-512zM524 416h-148l76 132z" />
    <glyph glyph-name="b" unicode="b" horiz-adv-x="965" 
d="M0 800v-244h108v-300h-108v-256h716q173 0 173 145v13q-1 9 -1 14v132q0 92 -144 108q144 0 144 104v120q0 164 -164 164h-724zM730 336v-46q0 -26 -40 -26h-426v98h424q42 0 42 -26zM688 464h-424v100h422q46 6 46 -26v-46q-6 -34 -44 -28z" />
    <glyph glyph-name="c" unicode="c" horiz-adv-x="939" 
d="M732 488h156v316h-50l-32 -86q-11 82 -82 82h-544q-180 0 -180 -180v-444q0 -176 176 -176h540q176 0 176 176v136h-164v-36q0 -36 -48 -36h-412q-116 0 -116 100v128q0 104 116 104h416q48 0 48 -42v-42z" />
    <glyph glyph-name="d" unicode="d" horiz-adv-x="966" 
d="M0 800v-244h108v-300h-108v-256h716q172 0 172 172v464q0 164 -164 164h-724zM720 480v-143q0 -81 -76 -73h-380v292h380q84 0 76 -76z" />
    <glyph glyph-name="e" unicode="e" horiz-adv-x="964" 
d="M736 332v-72h-460v88h388v136h-392v72h452l8 -68h156v312h-888v-244h108v-300h-108v-256h892v332h-156z" />
    <glyph glyph-name="f" unicode="f" horiz-adv-x="916" 
d="M392 260h-116v88h388v136h-392v72h452l8 -68h156v312h-888v-244h108v-300h-108v-256h392v260z" />
    <glyph glyph-name="g" unicode="g" 
d="M732 488h156v316h-46l-38 -84q0 80 -80 80h-544q-161 0 -180 -180v-444q0 -176 176 -176h540q176 0 176 176v240h-436v-120h276q1 -7 1 -14q0 -42 -47 -42h-458q-76 -8 -76 64v185q0 91 72 83h452q56 0 56 -42v-42z" />
    <glyph glyph-name="h" unicode="h" horiz-adv-x="962" 
d="M892 256h-132v300h128v244h-412v-244h124v-72h-328v72h112v244h-384v-244h108v-300h-108v-256h396v260h-120v88h324v-88h-112v-260h404v256z" />
    <glyph glyph-name="i" unicode="i" horiz-adv-x="468" 
d="M276 556h108v244h-384v-244h108v-300h-108v-256h396v260h-120v296z" />
    <glyph glyph-name="j" unicode="j" horiz-adv-x="955" 
d="M496 540h116v-232q0 -64 -68 -64h-312q-76 0 -68 64v64h-164v-192q0 -95 42.5 -137.5t137.5 -42.5h416q97 0 140.5 43.5t43.5 140.5v360h108v256h-392v-260z" />
    <glyph glyph-name="k" unicode="k" 
d="M892 256h-100l-180 180l204 120h72v244h-412v-244h96l-300 -124v124h112v244h-384v-244h108v-300h-108v-256h396v260h-120v44l192 72l116 -116h-96v-260h404v256z" />
    <glyph glyph-name="l" unicode="l" horiz-adv-x="910" 
d="M392 540h-120v-296h452l8 68h156v-312h-888v244h108v300h-108v256h392v-260z" />
    <glyph glyph-name="m" unicode="m" horiz-adv-x="1071" 
d="M1000 256h-124v300h124v244h-412v-244h128l-232 -152l-212 152h112v244h-384v-244h108v-300h-108v-256h396v260h-120v128l208 -152l232 156v-132h-120v-260h404v256z" />
    <glyph glyph-name="n" unicode="n" horiz-adv-x="962" 
d="M892 256h-132v300h128v244h-412v-244h124v-136l-328 136h112v244h-384v-244h108v-300h-108v-256h396v260h-120v144l324 -144h-112v-260h404v256z" />
    <glyph glyph-name="o" unicode="o" horiz-adv-x="966" 
d="M180 800q-93 0 -136.5 -43.5t-43.5 -136.5v-432q-2 -19 -2 -35q0 -84 50 -121q44 -32 132 -32h520q188 0 188 172v464q0 164 -164 164h-544zM720 480v-144q0 -72 -76 -72h-392q-84 0 -84 68v151q0 73 76 73h392q84 8 84 -76z" />
    <glyph glyph-name="p" unicode="p" horiz-adv-x="922" 
d="M392 260h-116v88h492q120 11 120 120v176q0 74 -41 115t-115 41h-732v-244h108v-300h-108v-256h392v260zM678 484h-406v72h404q49 0 48 -36t-46 -36z" />
    <glyph glyph-name="q" unicode="q" horiz-adv-x="970" 
d="M180 800q-180 0 -180 -180v-432q0 -98 45 -143t143 -45h264q56 -30 56 -61t-56 -63h236q45 35 45 74q0 24 -17 50q172 -8 172 172v464q0 164 -164 164h-544zM720 484v-160q2 -10 2 -18q0 -44 -46 -44q-9 0 -20 2h-420q-68 0 -68 60v159q0 73 64 73h424q72 0 64 -72z" />
    <glyph glyph-name="r" unicode="r" horiz-adv-x="964" 
d="M392 260h-116v88h208l112 -88h-112v-260h404v260h-112l-108 88h100q64 0 92 28t28 92v176q12 136 -156 156h-732v-244h108v-300h-108v-256h392v260zM666 484h-394v72h392q59 0 60 -36t-58 -36z" />
    <glyph glyph-name="s" unicode="s" 
d="M0 312v-314l42 4l46 82q13 -84 84 -84h544q92 0 132 40t40 132v192q0 104 -164 104h-522q-34 0 -34 30v28q0 30 32 30h488q28 0 28 -20v-20h172v288h-40l-42 -86q-26 54 -98 82h-528q-94 0 -137 -43t-43 -137v-156q15 -112 172 -112h514q34 0 34 -31v-31q0 -26 -30 -26
h-476q-32 0 -38 24v24h-176z" />
    <glyph glyph-name="t" unicode="t" horiz-adv-x="935" 
d="M656 260h-132v296h200v-80h164v324h-888v-316h160v72h204v-300h-128v-256h420v260z" />
    <glyph glyph-name="u" unicode="u" horiz-adv-x="1022" 
d="M568 540h104v-240q0 -56 -60 -56h-284q-60 0 -60 56v240h108v260h-376v-260h107v-364q0 -176 173 -176h385q91 0 131 40.5t40 131.5v372h120v256h-388v-260z" />
    <glyph glyph-name="v" unicode="v" horiz-adv-x="958" 
d="M212 0v244h104l-196 300h-120v256h416v-252h-112l152 -252l136 248h-96v256h392v-256h-116l-168 -300h120v-244h-512z" />
    <glyph glyph-name="w" unicode="w" horiz-adv-x="1071" 
d="M1000 544h-124l-108 -300h128v-244h-372v244h104l-136 136l-136 -136h100v-244h-380v244h128l-96 300h-108v256h396v-260h-120l44 -128l172 172l160 -160l52 116h-108v260h404v-256z" />
    <glyph glyph-name="x" unicode="x" 
d="M892 256h-112l-152 152l148 148h112v244h-412v-244h96l-132 -132l-132 132h76v244h-384v-244h112l148 -148l-152 -152h-108v-256h396v260h-84l128 128l128 -128h-80v-260h404v256z" />
    <glyph glyph-name="y" unicode="y" horiz-adv-x="937" 
d="M264 0v244h112v112l-292 188h-84v256h416v-252h-100l136 -92l144 88h-100v256h392v-256h-88l-252 -188v-112h124v-244h-408z" />
    <glyph glyph-name="z" unicode="z" horiz-adv-x="966" 
d="M736 332v-72h-396l548 228v312h-888v-360h164v88h468l-632 -272v-256h892v332h-156z" />
    <glyph glyph-name="quoteleft" unicode="&#x2018;" horiz-adv-x="303" 
d="M211 822v-188h-102l58 -108h-96l-64 108v188h204z" />
    <glyph glyph-name="quoteright" unicode="&#x2019;" horiz-adv-x="306" 
d="M8 816v-188h102l-58 -108h96l64 108v188h-204z" />
    <glyph glyph-name="quotedblleft" unicode="&#x201c;" horiz-adv-x="547" 
d="M455 816v-188h-102l58 -108h-96l-64 108v188h204zM195 628h-88l44 -108h-96l-56 108v188h196v-188z" />
    <glyph glyph-name="quotedblright" unicode="&#x201d;" horiz-adv-x="559" 
d="M8 816v-188h102l-58 -108h96l64 108v188h-204zM268 628h88l-44 -108h96l56 108v188h-196v-188z" />
    <glyph glyph-name="glyph94" horiz-adv-x="481" 
 />
    <glyph glyph-name="glyph95" horiz-adv-x="481" 
 />
    <glyph glyph-name="glyph94" horiz-adv-x="481" 
 />
    <glyph glyph-name="glyph95" horiz-adv-x="481" 
 />
    <glyph glyph-name="ch254" horiz-adv-x="481" 
 />
    <glyph glyph-name="ch255" horiz-adv-x="481" 
 />
  </font>
</defs>
</svg>
